<svg aria-hidden="true" style="width:0;height:0;position:absolute;overflow:hidden" xmlns="http://www.w3.org/2000/svg"><defs><symbol id="icon-likes" viewBox="0 0 32 32"><path d="M31.947 9.996c-.467-5.141-4.106-8.871-8.66-8.871-3.034 0-5.812 1.633-7.375 4.249-1.549-2.651-4.213-4.25-7.199-4.25-4.553 0-8.193 3.73-8.66 8.871-.037.227-.188 1.422.272 3.371.663 2.811 2.196 5.368 4.43 7.393l11.148 10.117 11.34-10.116c2.235-2.025 3.767-4.582 4.43-7.394.46-1.948.309-3.144.273-3.371zm-1.471 3.088c-.606 2.568-2.009 4.907-4.056 6.76L15.911 29.22 5.582 19.847c-2.05-1.857-3.453-4.196-4.059-6.763-.436-1.844-.257-2.886-.256-2.893l.009-.062c.4-4.504 3.527-7.774 7.436-7.774 2.884 0 5.424 1.772 6.629 4.625l.567 1.343.567-1.343c1.186-2.809 3.859-4.624 6.812-4.624 3.909 0 7.036 3.27 7.444 7.832.001.01.18 1.052-.255 2.897z"/></symbol><symbol id="icon-likes-fill" viewBox="0 0 32 32"><path d="M31.947 9.996c-.467-5.141-4.106-8.871-8.66-8.871-3.034 0-5.812 1.633-7.375 4.249-1.549-2.651-4.213-4.25-7.199-4.25-4.553 0-8.193 3.73-8.66 8.871-.037.227-.188 1.422.272 3.371.663 2.811 2.196 5.368 4.43 7.393l11.148 10.117 11.34-10.116c2.235-2.025 3.767-4.582 4.43-7.394.46-1.948.309-3.144.273-3.371z"/></symbol><symbol id="icon-arrow-right" viewBox="0 0 32 32"><path d="M17.627 25.373a1 1 0 0 0 1.414 0l8.333-8.333a1 1 0 0 0 0-1.414l-8.333-8.333a1 1 0 1 0-1.414 1.413l.001.001 6.627 6.627H5.002a1 1 0 0 0 0 2h19.253l-6.627 6.627a1 1 0 0 0 0 1.414z"/></symbol><symbol id="icon-search" viewBox="0 0 32 32"><path d="M13.867 3.2C7.989 3.2 3.2 7.988 3.2 13.867s4.788 10.667 10.667 10.667c2.556 0 4.904-.908 6.744-2.415l6.369 6.369a1.067 1.067 0 1 0 1.509-1.508l-6.369-6.369a10.61 10.61 0 0 0 2.415-6.744c0-5.878-4.788-10.667-10.667-10.667zm0 2.133c4.725 0 8.533 3.808 8.533 8.533s-3.808 8.533-8.533 8.533-8.533-3.808-8.533-8.533 3.808-8.533 8.533-8.533z"/></symbol><symbol id="icon-comments" viewBox="0 0 32 32"><path d="M9 13c-1.106 0-2 .894-2 2s.894 2 2 2 2-.894 2-2-.894-2-2-2zm7 0c-1.106 0-2 .894-2 2s.894 2 2 2 2-.894 2-2-.894-2-2-2zm7 0c-1.106 0-2 .894-2 2s.894 2 2 2 2-.894 2-2-.894-2-2-2zM16 2C7.162 2 0 7.819 0 15c0 2.975 1.244 5.7 3.306 7.894-.931 2.462-2.869 4.55-2.9 4.575A1.5 1.5 0 0 0 1.5 30c3.844 0 6.875-1.606 8.694-2.894C12 27.675 13.95 28 16 28c8.837 0 16-5.819 16-13S24.837 2 16 2zm0 23c-1.669 0-3.319-.256-4.9-.756l-1.419-.45-1.219.863a13.483 13.483 0 0 1-3.594 1.813c.456-.756.9-1.606 1.244-2.512l.662-1.756-1.287-1.363C4.356 19.633 3 17.639 3 15.001c0-5.513 5.831-10 13-10s13 4.487 13 10-5.831 10-13 10z"/></symbol><symbol id="icon-downloads" viewBox="0 0 32 32"><path d="M16 0c-.62 0-1.123.503-1.123 1.123v21.629l-3.84-3.84a1.123 1.123 0 0 0-1.587 1.587l5.753 5.753a1.121 1.121 0 0 0 1.58 0l5.753-5.753a1.123 1.123 0 0 0-1.587-1.587l-3.84 3.84V1.116a1.103 1.103 0 0 0-1.11-1.117z"/><path d="M30.178 30.883v-6.511a1.123 1.123 0 0 0-2.246 0v5.394H4.063v-5.394c0-.62-.503-1.123-1.117-1.123s-1.123.503-1.123 1.123v6.511c0 .62.503 1.117 1.123 1.117h26.109c.62 0 1.123-.496 1.123-1.117z"/></symbol><symbol id="icon-views" viewBox="0 0 32 32"><path d="M31.64 13.756c-4.362-4.662-9.869-7.023-15.396-7.086l-.137-.002-.092-.001H16c-.087 0-.175.001-.261.004-5.51.077-11.007 2.437-15.377 7.083a1.334 1.334 0 0 0 1.943 1.827c1.714-1.823 3.617-3.247 5.626-4.272A9.332 9.332 0 0 0 16 25.334a9.332 9.332 0 0 0 8.06-14.04c2.014 1.026 3.919 2.454 5.632 4.285a1.334 1.334 0 0 0 1.948-1.822zM22.667 16c0 3.682-2.984 6.667-6.667 6.667S9.333 19.683 9.333 16a6.667 6.667 0 0 1 6.475-6.664c.069-.001.137-.003.206-.003h.036l.125.002a6.667 6.667 0 0 1 6.492 6.664z"/><path d="M16 13.333a1.333 1.333 0 0 0 0-2.666A5.333 5.333 0 1 0 21.333 16a1.333 1.333 0 0 0-2.666 0A2.667 2.667 0 1 1 16 13.333z"/></symbol></defs></svg>