<svg aria-hidden="true" style="width:0;height:0;position:absolute;overflow:hidden" xmlns="http://www.w3.org/2000/svg"><defs><symbol id="icon-arrow-right" viewBox="0 0 32 32"><path d="M17.627 25.373a1 1 0 0 0 1.414 0l8.333-8.333a1 1 0 0 0 0-1.414l-8.333-8.333a1 1 0 1 0-1.414 1.413l.001.001 6.627 6.627H5.002a1 1 0 0 0 0 2h19.253l-6.627 6.627a1 1 0 0 0 0 1.414z"/></symbol><symbol id="icon-search" viewBox="0 0 32 32"><path d="M13.867 3.2C7.989 3.2 3.2 7.988 3.2 13.867s4.788 10.667 10.667 10.667c2.556 0 4.904-.908 6.744-2.415l6.369 6.369a1.067 1.067 0 1 0 1.509-1.508l-6.369-6.369a10.61 10.61 0 0 0 2.415-6.744c0-5.878-4.788-10.667-10.667-10.667zm0 2.133c4.725 0 8.533 3.808 8.533 8.533s-3.808 8.533-8.533 8.533-8.533-3.808-8.533-8.533 3.808-8.533 8.533-8.533z"/></symbol><symbol id="icon-comments" viewBox="0 0 32 32"><path d="M9 13c-1.106 0-2 .894-2 2s.894 2 2 2 2-.894 2-2-.894-2-2-2zm7 0c-1.106 0-2 .894-2 2s.894 2 2 2 2-.894 2-2-.894-2-2-2zm7 0c-1.106 0-2 .894-2 2s.894 2 2 2 2-.894 2-2-.894-2-2-2zM16 2C7.162 2 0 7.819 0 15c0 2.975 1.244 5.7 3.306 7.894-.931 2.462-2.869 4.55-2.9 4.575A1.5 1.5 0 0 0 1.5 30c3.844 0 6.875-1.606 8.694-2.894C12 27.675 13.95 28 16 28c8.837 0 16-5.819 16-13S24.837 2 16 2zm0 23c-1.669 0-3.319-.256-4.9-.756l-1.419-.45-1.219.863a13.483 13.483 0 0 1-3.594 1.813c.456-.756.9-1.606 1.244-2.512l.662-1.756-1.287-1.363C4.356 19.633 3 17.639 3 15.001c0-5.513 5.831-10 13-10s13 4.487 13 10-5.831 10-13 10z"/></symbol><symbol id="icon-downloads" viewBox="0 0 32 32"><path d="M16 0c-.62 0-1.123.503-1.123 1.123v21.629l-3.84-3.84a1.123 1.123 0 0 0-1.587 1.587l5.753 5.753a1.121 1.121 0 0 0 1.58 0l5.753-5.753a1.123 1.123 0 0 0-1.587-1.587l-3.84 3.84V1.116a1.103 1.103 0 0 0-1.11-1.117z"/><path d="M30.178 30.883v-6.511a1.123 1.123 0 0 0-2.246 0v5.394H4.063v-5.394c0-.62-.503-1.123-1.117-1.123s-1.123.503-1.123 1.123v6.511c0 .62.503 1.117 1.123 1.117h26.109c.62 0 1.123-.496 1.123-1.117z"/></symbol><symbol id="icon-likes" viewBox="0 0 32 32"><path d="M23.453 1.663A8.545 8.545 0 0 0 16 6.022a8.545 8.545 0 0 0-7.453-4.359C3.834 1.663 0 5.497 0 10.21c0 3.773 2.62 8.293 7.786 13.433 3.757 3.738 7.453 6.389 7.609 6.5a1.042 1.042 0 0 0 1.21 0c.156-.111 3.852-2.762 7.609-6.5C29.381 18.503 32 13.983 32 10.21c0-4.713-3.834-8.547-8.547-8.547zm-.689 20.484C19.998 24.902 17.198 27.095 16 28c-1.199-.904-3.998-3.098-6.764-5.853-4.68-4.66-7.153-8.788-7.153-11.938 0-3.564 2.9-6.464 6.464-6.464a6.457 6.457 0 0 1 6.419 5.711 1.041 1.041 0 0 0 2.068 0 6.457 6.457 0 0 1 6.419-5.711c3.564 0 6.464 2.9 6.464 6.464 0 3.149-2.473 7.277-7.153 11.938z"/></symbol><symbol id="icon-views" viewBox="0 0 32 32"><path d="M31.64 13.756c-4.362-4.662-9.869-7.023-15.396-7.086l-.137-.002-.092-.001H16c-.087 0-.175.001-.261.004-5.51.077-11.007 2.437-15.377 7.083a1.334 1.334 0 0 0 1.943 1.827c1.714-1.823 3.617-3.247 5.626-4.272A9.332 9.332 0 0 0 16 25.334a9.332 9.332 0 0 0 8.06-14.04c2.014 1.026 3.919 2.454 5.632 4.285a1.334 1.334 0 0 0 1.948-1.822zM22.667 16c0 3.682-2.984 6.667-6.667 6.667S9.333 19.683 9.333 16a6.667 6.667 0 0 1 6.475-6.664c.069-.001.137-.003.206-.003h.036l.125.002a6.667 6.667 0 0 1 6.492 6.664z"/><path d="M16 13.333a1.333 1.333 0 0 0 0-2.666A5.333 5.333 0 1 0 21.333 16a1.333 1.333 0 0 0-2.666 0A2.667 2.667 0 1 1 16 13.333z"/></symbol></defs></svg>