<svg aria-hidden="true" style="width:0;height:0;position:absolute;overflow:hidden" xmlns="http://www.w3.org/2000/svg"><defs><symbol id="icon-likes" viewBox="0 0 512 512"><path d="m244 84 11.1 12 12-11.98C300.6 51.37 347 36.51 392.6 44.1c68.9 11.48 119.4 71.1 119.4 141v5.8c0 41.5-17.2 81.2-47.6 109.5L283.7 469.1c-7.5 7-17.4 10.9-27.7 10.9s-20.2-3.9-27.7-10.9L47.59 300.4C17.23 272.1 0 232.4 0 190.9v-5.8c0-69.9 50.52-129.52 119.4-141 44.7-7.59 92 7.27 124.6 39.9-.9 0 0 .01 0 0zm11.1 79.9-45-46.8c-21.7-20.82-52.5-30.7-82.8-25.66C81.55 99.07 48 138.7 48 185.1v5.8c0 28.2 11.71 55.2 32.34 74.4L256 429.3l175.7-164c20.6-19.2 32.3-46.2 32.3-74.4v-5.8c0-46.4-33.6-86.03-79.3-93.66-30.3-5.04-61.1 4.84-82.8 25.66l-46.8 46.8z"/></symbol><symbol id="icon-likes-fill" viewBox="0 0 512 512"><path d="m47.6 300.4 180.7 168.7c7.5 7 17.4 10.9 27.7 10.9s20.2-3.9 27.7-10.9l180.7-168.7c30.4-28.3 47.6-68 47.6-109.5v-5.8c0-69.9-50.5-129.5-119.4-141-45.6-7.6-92 7.3-124.6 39.9l-12 12-12-12c-32.6-32.6-79-47.5-124.6-39.9C50.5 55.6 0 115.2 0 185.1v5.8c0 41.5 17.2 81.2 47.6 109.5z"/></symbol><symbol id="icon-arrow-right" viewBox="0 0 32 32"><path d="M17.627 25.373a1 1 0 0 0 1.414 0l8.333-8.333a1 1 0 0 0 0-1.414l-8.333-8.333a1 1 0 1 0-1.414 1.413l.001.001 6.627 6.627H5.002a1 1 0 0 0 0 2h19.253l-6.627 6.627a1 1 0 0 0 0 1.414z"/></symbol><symbol id="icon-search" viewBox="0 0 32 32"><path d="M13.867 3.2C7.989 3.2 3.2 7.988 3.2 13.867s4.788 10.667 10.667 10.667c2.556 0 4.904-.908 6.744-2.415l6.369 6.369a1.067 1.067 0 1 0 1.509-1.508l-6.369-6.369a10.61 10.61 0 0 0 2.415-6.744c0-5.878-4.788-10.667-10.667-10.667zm0 2.133c4.725 0 8.533 3.808 8.533 8.533s-3.808 8.533-8.533 8.533-8.533-3.808-8.533-8.533 3.808-8.533 8.533-8.533z"/></symbol><symbol id="icon-comments" viewBox="0 0 512 512"><path d="M144 208c-17.7 0-32 14.2-32 31.1 0 18.6 14.3 32.9 32 32.9s31.1-14.25 31.1-32-13.3-32-31.1-32zm112-.9c-17.75 0-31.1 14.25-31.1 32s14.25 31.1 31.1 31.1 31.1-14.25 31.1-31.1-13.3-32-31.1-32zm112 .9c-17.75 0-31.1 14.25-31.1 32s14.25 32 31.1 32c17.75 0 31.99-14.25 31.99-32 .01-17.8-14.19-32-31.99-32zM256 31.1C114.6 31.1.9 124.22.9 239.1c0 47.62 19.91 91.25 52.91 126.3-14.87 39.5-45.87 72.88-46.37 73.25-6.624 7-8.373 17.25-4.624 26C5.818 474.2 14.38 480 24 480c61.49 0 109.1-25.75 139.1-46.25 28.87 9 60.16 14.25 92.9 14.25 141.4 0 255.1-93.13 255.1-207.1S397.4 31.1 256 31.1zm0 368.9c-26.75 0-53.12-4.125-78.36-12.12l-22.75-7.125L135.4 394.5c-14.25 10.12-33.87 21.38-57.49 29 7.374-12.12 14.37-25.75 19.87-40.25l10.62-28-20.62-21.87C69.81 314.1 48.06 282.2 48.06 240c0-88.25 93.24-160 207.1-160s207.1 71.75 207.1 160S370.8 400 256 400z"/></symbol><symbol id="icon-downloads" viewBox="0 0 512 512"><path d="M288 32c0-17.7-14.3-32-32-32s-32 14.3-32 32v242.7l-73.4-73.4c-12.5-12.5-32.8-12.5-45.3 0s-12.5 32.8 0 45.3l128 128c12.5 12.5 32.8 12.5 45.3 0l128-128c12.5-12.5 12.5-32.8 0-45.3s-32.8-12.5-45.3 0L288 274.7V32zM64 352c-35.3 0-64 28.7-64 64v32c0 35.3 28.7 64 64 64h384c35.3 0 64-28.7 64-64v-32c0-35.3-28.7-64-64-64H346.5l-45.3 45.3c-25 25-65.5 25-90.5 0L165.5 352H64zm368 104c-13.3 0-24-10.7-24-24s10.7-24 24-24 24 10.7 24 24-10.7 24-24 24z"/></symbol><symbol id="icon-views" viewBox="0 0 576 512"><path d="M160 256c0-70.7 57.3-128 128-128s128 57.3 128 128-57.3 128-128 128-128-57.3-128-128zm128 80c44.2 0 80-35.8 80-80s-35.8-80-80-80h-2.9c2.2 5.1 2.9 10.5 2.9 16 0 35.3-28.7 64-64 64-5.5 0-10.9-.7-16-2.9v2c0 45.1 35.8 80.9 80 80.9zM95.42 112.6C142.5 68.84 207.2 32 288 32c80.8 0 145.5 36.84 192.6 80.6 46.8 43.4 78.1 94.5 92.9 131.1 3.3 7.9 3.3 16.7 0 24.6-14.8 35.7-46.1 86.8-92.9 131.1C433.5 443.2 368.8 480 288 480s-145.5-36.8-192.58-80.6C48.62 355.1 17.34 304 2.461 268.3a31.967 31.967 0 0 1 0-24.6C17.34 207.1 48.62 156 95.42 112.6zM288 80c-65.2 0-118.8 29.6-159.9 67.7-38.5 35.8-65.08 77.4-78.66 108.3 13.58 30 40.16 72.5 78.66 108.3C169.2 402.4 222.8 432 288 432s118.8-29.6 159.9-67.7c38.5-35.8 64.2-78.3 78.7-108.3-14.5-30.9-40.2-72.5-78.7-108.3C406.8 109.6 353.2 80 288 80z"/></symbol></defs></svg>