<svg aria-hidden="true" style="position: absolute; width: 0; height: 0; overflow: hidden;" version="1.1" xmlns="http://www.w3.org/2000/svg" xmlns:xlink="http://www.w3.org/1999/xlink">
<defs>
<symbol id="icon-arrow-right" viewBox="0 0 32 32">
<path d="M17.627 25.373c0.181 0.181 0.431 0.292 0.707 0.292s0.526-0.112 0.707-0.292v0l8.333-8.333c0.181-0.181 0.292-0.431 0.292-0.707s-0.112-0.526-0.292-0.707v0l-8.333-8.333c-0.183-0.196-0.443-0.318-0.732-0.318-0.552 0-1 0.448-1 1 0 0.289 0.122 0.549 0.318 0.731l0.001 0.001 6.627 6.627h-19.253c-0.552 0-1 0.448-1 1s0.448 1 1 1v0h19.253l-6.627 6.627c-0.181 0.181-0.292 0.431-0.292 0.707s0.112 0.526 0.292 0.707v0z"></path>
</symbol>
<symbol id="icon-search" viewBox="0 0 32 32">
<path d="M13.867 3.2c-5.878 0-10.667 4.788-10.667 10.667s4.788 10.667 10.667 10.667c2.556 0 4.904-0.908 6.744-2.415l6.369 6.369c0.194 0.202 0.467 0.328 0.77 0.328 0.589 0 1.067-0.478 1.067-1.067 0-0.302-0.126-0.575-0.328-0.769l-6.369-6.369c1.507-1.84 2.415-4.187 2.415-6.744 0-5.878-4.788-10.667-10.667-10.667zM13.867 5.333c4.725 0 8.533 3.808 8.533 8.533s-3.808 8.533-8.533 8.533c-4.725 0-8.533-3.808-8.533-8.533s3.808-8.533 8.533-8.533z"></path>
</symbol>
<symbol id="icon-comments" viewBox="0 0 32 32">
<path d="M9 13c-1.106 0-2 0.894-2 2s0.894 2 2 2 2-0.894 2-2-0.894-2-2-2zM16 13c-1.106 0-2 0.894-2 2s0.894 2 2 2 2-0.894 2-2-0.894-2-2-2zM23 13c-1.106 0-2 0.894-2 2s0.894 2 2 2 2-0.894 2-2-0.894-2-2-2zM16 2c-8.838 0-16 5.819-16 13 0 2.975 1.244 5.7 3.306 7.894-0.931 2.462-2.869 4.55-2.9 4.575-0.412 0.438-0.525 1.075-0.287 1.625s0.781 0.906 1.381 0.906c3.844 0 6.875-1.606 8.694-2.894 1.806 0.569 3.756 0.894 5.806 0.894 8.837 0 16-5.819 16-13s-7.163-13-16-13zM16 25c-1.669 0-3.319-0.256-4.9-0.756l-1.419-0.45-1.219 0.863c-0.894 0.631-2.119 1.337-3.594 1.813 0.456-0.756 0.9-1.606 1.244-2.512l0.662-1.756-1.287-1.363c-1.131-1.206-2.487-3.2-2.487-5.838 0-5.513 5.831-10 13-10s13 4.487 13 10-5.831 10-13 10z"></path>
</symbol>
<symbol id="icon-downloads" viewBox="0 0 32 32">
<path d="M16 0c-0.62 0-1.123 0.503-1.123 1.123v21.629l-3.84-3.84c-0.438-0.438-1.149-0.438-1.587 0s-0.438 1.149 0 1.587l5.753 5.753c0.216 0.215 0.503 0.327 0.79 0.327s0.575-0.111 0.79-0.327l5.753-5.753c0.438-0.438 0.438-1.149 0-1.587s-1.149-0.438-1.587 0l-3.84 3.84v-21.636c0.007-0.62-0.49-1.117-1.11-1.117z"></path>
<path d="M30.178 30.883v-6.511c0-0.62-0.503-1.123-1.123-1.123s-1.123 0.503-1.123 1.123v5.394h-23.869v-5.394c0-0.62-0.503-1.123-1.117-1.123s-1.123 0.503-1.123 1.123v6.511c0 0.62 0.503 1.117 1.123 1.117h26.109c0.62 0 1.123-0.496 1.123-1.117z"></path>
</symbol>
<symbol id="icon-likes" viewBox="0 0 32 32">
<path d="M23.453 1.663c-3.175 0-5.981 1.739-7.453 4.359-1.472-2.62-4.278-4.359-7.453-4.359-4.713 0-8.547 3.834-8.547 8.547 0 3.773 2.62 8.293 7.786 13.433 3.757 3.738 7.453 6.389 7.609 6.5 0.181 0.129 0.393 0.194 0.605 0.194s0.424-0.065 0.605-0.194c0.156-0.111 3.852-2.762 7.609-6.5 5.167-5.14 7.786-9.66 7.786-13.433 0-4.713-3.834-8.547-8.547-8.547zM22.764 22.147c-2.766 2.755-5.566 4.948-6.764 5.853-1.199-0.904-3.998-3.098-6.764-5.853-4.68-4.66-7.153-8.788-7.153-11.938 0-3.564 2.9-6.464 6.464-6.464 3.282 0 6.042 2.455 6.419 5.711 0.061 0.525 0.506 0.921 1.034 0.921s0.974-0.396 1.034-0.921c0.377-3.256 3.137-5.711 6.419-5.711 3.564 0 6.464 2.9 6.464 6.464 0 3.149-2.473 7.277-7.153 11.938z"></path>
</symbol>
<symbol id="icon-views" viewBox="0 0 32 32">
<path d="M31.64 13.756c-4.362-4.662-9.869-7.023-15.396-7.086-0.046-0.001-0.091-0.001-0.137-0.002-0.031-0-0.061-0.001-0.092-0.001-0.005 0-0.010-0-0.015-0-0.087 0-0.175 0.001-0.261 0.004-5.51 0.077-11.007 2.437-15.377 7.083-0.504 0.536-0.479 1.38 0.058 1.885s1.38 0.479 1.885-0.058c1.714-1.823 3.617-3.247 5.626-4.272-0.803 1.378-1.264 2.981-1.264 4.692 0 5.155 4.178 9.333 9.333 9.333s9.333-4.178 9.333-9.333c0-1.717-0.464-3.325-1.273-4.707 2.014 1.026 3.919 2.454 5.632 4.285 0.503 0.538 1.347 0.566 1.885 0.063s0.566-1.347 0.063-1.885zM22.667 16c0 3.682-2.984 6.667-6.667 6.667s-6.667-2.984-6.667-6.667c0-3.618 2.881-6.562 6.475-6.664 0.069-0.001 0.137-0.003 0.206-0.003 0.012 0 0.024 0 0.036 0 0.042 0 0.083 0.001 0.125 0.002 3.601 0.093 6.492 3.041 6.492 6.664z"></path>
<path d="M16 13.333c0.736 0 1.333-0.597 1.333-1.333s-0.597-1.333-1.333-1.333c-2.946 0-5.333 2.388-5.333 5.333s2.388 5.333 5.333 5.333 5.333-2.388 5.333-5.333c0-0.736-0.597-1.333-1.333-1.333s-1.333 0.597-1.333 1.333c0 1.473-1.194 2.667-2.667 2.667s-2.667-1.194-2.667-2.667 1.194-2.667 2.667-2.667z"></path>
</symbol>
</defs>
</svg>
